<?xml version="1.0" encoding="UTF-8" standalone="no"?>
<svg
   width="24"
   height="24"
   viewBox="0 0 24 24"
   fill="none"
   stroke="currentColor"
   stroke-width="2"
   stroke-linecap="round"
   stroke-linejoin="round"
   class="lucide lucide-printer-icon lucide-printer"
   version="1.1"
   id="svg2"
   xmlns="http://www.w3.org/2000/svg"
   xmlns:svg="http://www.w3.org/2000/svg">
  <defs
     id="defs2" />
  <path
     d="M 5.4545454,18.545458 H 3.2727273 A 2.1818182,2.1818186 0 0 1 1.0909091,16.363639 V 10.909093 A 2.1818182,2.1818186 0 0 1 3.2727273,8.727274 H 20.727272 a 2.1818182,2.1818186 0 0 1 2.181819,2.181819 v 5.454546 a 2.1818182,2.1818186 0 0 1 -2.181819,2.181819 h -2.181817"
     id="path1"
     style="stroke-width:2.18181" />
  <path
     d="M 5.4545454,8.727274 V 2.1818184 A 1.0909091,1.0909093 0 0 1 6.5454545,1.0909091 H 17.454545 a 1.0909091,1.0909093 0 0 1 1.09091,1.0909093 V 8.727274"
     id="path2"
     style="stroke-width:2.18181" />
  <rect
     x="5.4545455"
     y="14.181821"
     width="13.090909"
     height="8.7272739"
     rx="1.0909091"
     id="rect2"
     style="stroke-width:2.18181" />
</svg>