<?xml version="1.0" encoding="UTF-8" standalone="no"?>
<svg version="1.1" id="svg1" width="443.72101" height="478.228" viewBox="0 0 443.721 478.22802"
   xmlns="http://www.w3.org/2000/svg">
  <g id="logo">
    <path style="fill:#8B7355;fill-opacity:1;fill-rule:nonzero"
      d="m 36.662936,113.392 c -0.162667,4.42267 -0.245333,8.836 -0.245333,13.18133 0,132.18667 72.177327,252.30666 188.633327,314.43333 116.45467,-62.12667 188.632,-182.24533 188.632,-314.43333 0,-4.344 -0.0827,-8.75733 -0.24534,-13.18133 C 346.49759,103.04 281.6016,77.890668 225.05093,40.378668 168.49893,77.890668 103.60293,103.04 36.662936,113.392 M 217.5696,474.55466 C 154.13227,442.57066 100.58293,393.82533 62.709602,333.58933 23.77227,271.65733 3.1896035,200.072 3.1896035,126.57333 c 0,-9.54 0.3613333,-19.28666 1.0733333,-28.967996 L 5.2616035,84.010667 18.789603,82.336001 C 89.205601,73.613334 157.23627,47.446668 215.52693,6.6640027 L 225.0496,2.8348e-6 234.57493,6.6626693 c 58.288,40.7839987 126.31866,66.9506647 196.73733,75.6746647 l 13.524,1.673333 1.00133,13.593333 c 0.712,9.67333 1.07334,19.42 1.07334,28.96933 0,73.49867 -20.58134,145.08267 -59.52134,207.016 -37.86933,60.23466 -91.41866,108.98 -154.85866,140.96666 l -7.48,3.772 z"
      id="shield"/>
    <path style="fill:#C9A84C;fill-opacity:1;fill-rule:nonzero"
      d="m 225.0504,316.1296 -102.54,-131.09733 102.54,-131.09733 102.54,131.09733 z m 0,-316.1293254301 L 80.327737,185.03227 225.0504,370.06427 369.77306,185.03227 Z"
      id="diamond"/>
  </g>
</svg>
